# Blender v2.80 (sub 75) OBJ File: 'mbe21_ter_gem.blend'
# www.blender.org
mtllib mbe21_ter_gem.mtl
o Gem
v 0.000000 1.000000 0.000000
v 0.500000 0.000000 -0.500000
v -0.500000 0.000000 -0.500000
v 0.500000 -0.000000 0.500000
v -0.500000 -0.000000 0.500000
v 0.000000 -1.000000 -0.000000
vt 0.125000 0.000000
vt 0.000000 0.500000
vt 0.250000 0.500000
vt 0.375000 0.000000
vt 0.250000 0.500000
vt 0.500000 0.500000
vt 0.625000 0.000000
vt 0.500000 0.500000
vt 0.750000 0.500000
vt 0.875000 0.000000
vt 0.750000 0.500000
vt 1.000000 0.500000
vt 0.125000 1.000000
vt 0.000000 0.500000
vt 0.250000 0.500000
vt 0.375000 1.000000
vt 0.500000 0.500000
vt 0.625000 1.000000
vt 0.750000 0.500000
vt 0.875000 1.000000
vt 1.000000 0.500000
vn 0.0000 0.4472 -0.8944
vn 0.8944 0.4472 0.0000
vn 0.0000 0.4472 0.8944
vn -0.8944 0.4472 0.0000
vn 0.0000 -0.4472 -0.8944
vn 0.8944 -0.4472 -0.0000
vn 0.0000 -0.4472 0.8944
vn -0.8944 -0.4472 -0.0000
usemtl Material.001
s 1
f 1/1/1 2/2/1 3/3/1
f 1/4/2 4/5/2 2/6/2
f 1/7/3 5/8/3 4/9/3
f 1/10/4 3/11/4 5/12/4
f 6/13/5 3/14/5 2/15/5
f 6/16/6 2/15/6 4/17/6
f 6/18/7 4/17/7 5/19/7
f 6/20/8 5/19/8 3/21/8
