# Blender v2.80 (sub 75) OBJ File: 'testcube.blend'
# www.blender.org
mtllib mbe21_gem.mtl
o Cube
v 1.000000 1.000000 -1.000000
v 1.000000 -1.000000 -1.000000
v 1.000000 1.000000 1.000000
v 1.000000 -1.000000 1.000000
v -1.000000 1.000000 -1.000000
v -1.000000 -1.000000 -1.000000
v -1.000000 1.000000 1.000000
v -1.000000 -1.000000 1.000000
v 1.000000 1.000000 1.000000
vt 0.000000 0.840000
vt 0.160000 0.840000
vt 0.160000 1.000000
vt -0.000000 1.000000
vt 0.160000 0.680000
vt 0.320000 0.680000
vt 0.320000 0.840000
vt 0.160000 0.840000
vt 0.320000 0.680000
vt 0.480000 0.680000
vt 0.480000 0.840000
vt 0.320000 0.840000
vt 0.160000 0.840000
vt 0.320000 0.840000
vt 0.320000 1.000000
vt 0.160000 1.000000
vt 0.000000 0.680000
vt 0.160000 0.680000
vt 0.160000 0.840000
vt -0.000000 0.840000
vt 0.480000 1.000000
vt 0.320000 1.000000
vn 0.0000 1.0000 0.0000
vn 0.0000 0.0000 1.0000
vn -1.0000 0.0000 0.0000
vn 0.0000 -1.0000 0.0000
vn 1.0000 0.0000 0.0000
vn 0.0000 0.0000 -1.0000
usemtl Material
s off
f 1/1/1 5/2/1 7/3/1 3/4/1
f 4/5/2 3/6/2 7/7/2 8/8/2
f 8/9/3 7/10/3 5/11/3 6/12/3
f 6/13/4 2/14/4 4/15/4 8/16/4
f 2/17/5 1/18/5 3/19/5 4/20/5
f 6/12/6 5/11/6 1/21/6 2/22/6
l 3 9
